<svg xmlns="http://www.w3.org/2000/svg"
	 viewBox="0 0 80 80" 
	 width="100%"
	 height="100%">
	<path id="XMLID_181_" d="M31.9,49c-1.5,0-2.5-0.3-3.5-0.8l-0.7,2.1c1.1,0.6,2.3,1,4.2,1c3.4,0,5.2-1.5,5.2-3.8c0-1.7-1-2.8-2.3-3.2
		v0c0.9-0.3,1.9-1.3,1.9-2.8c0-2.3-1.6-3.7-4.8-3.7c-1.3,0-2.8,0.3-3.9,0.9l0.8,2.1c1-0.4,2.2-0.6,3.1-0.6c1.4,0,2.1,0.6,2.1,1.6
		c0,1-0.6,1.7-2.1,1.7h-2.2v2.2h2.2c1.8,0,2.4,0.6,2.4,1.8C34.3,48.4,33.2,49,31.9,49z"/>
	<path id="XMLID_178_" d="M46.3,38h-2.9l-3.6,5.6c-0.7,1.1-0.9,2.1-0.9,3.1c0,2.5,1.7,4.5,5,4.5c3.2,0,5-2,5-4.5
		c0-2.6-1.7-4.4-4.1-4.4c-0.6,0-1.1,0.1-1.4,0.2l0,0l3-4.4V38z M43.8,44.7c1.4,0,2.2,0.7,2.2,2.1c0,1.5-0.8,2.2-2.2,2.2
		c-1.4,0-2.2-0.8-2.2-2.2C41.6,45.3,42.5,44.7,43.8,44.7z"/>
	<path id="XMLID_175_" d="M55,37.7c-3.6,0-5,2.6-5,6.8c0,4.2,1.5,6.8,5,6.8c3.6,0,5-2.6,5-6.8C60,40.3,58.6,37.7,55,37.7z M55,49
		c-1.7,0-2.3-1.5-2.3-4.5c0-3,0.6-4.5,2.3-4.5c1.7,0,2.2,1.5,2.2,4.5C57.3,47.5,56.7,49,55,49z"/>
	<path id="XMLID_172_" d="M64.9,37.7c-2,0-3.4,1.2-3.4,3.2c0,2,1.4,3.2,3.4,3.2c2,0,3.4-1.2,3.4-3.2C68.2,38.9,66.9,37.7,64.9,37.7z
		 M64.9,42.4c-0.9,0-1.5-0.5-1.5-1.5c0-0.9,0.6-1.5,1.5-1.5c0.9,0,1.5,0.6,1.5,1.5C66.4,41.9,65.8,42.4,64.9,42.4z"/>
	<path id="XMLID_171_" d="M36.6,62.2c-10.4,0-18.7-8.6-18.3-19.1c0.4-9.9,8.9-17.6,18.8-17.6h2.5v7.7c0,0.7,0.8,1.1,1.4,0.6l12.8-11
		c0.4-0.4,0.4-1.1,0-1.4L41,10.4c-0.5-0.5-1.4-0.1-1.4,0.6v7.5h-2.4c-14.2,0-26.2,11.6-25.9,25.8C11.5,58,22.8,69.2,36.6,69.2
		c5.7,0,11.1-1.9,15.6-5.3c0.7-0.5,0.8-1.5,0.2-2.2l-2.7-3c-0.5-0.6-1.4-0.7-2-0.2C44.6,60.9,40.7,62.2,36.6,62.2z"/>
</svg>
