<svg xmlns="http://www.w3.org/2000/svg"
	 viewBox="0 0 80 80"
	 width="100%"
	 height="100%">
	<path d="M33.1,44l6.7-11.5L33.1,21H19.7l-6.7,11.5L19.7,44H33.1z M26.4,25.7c3.7,0,6.8,3,6.8,6.8c0,3.7-3,6.8-6.8,6.8
	c-3.7,0-6.8-3-6.8-6.8C19.7,28.8,22.7,25.7,26.4,25.7z" />
	<g>
		<polygon points="42.5,35.2 52.2,36.7 56.5,30.4 46.3,28.8 		" />
		<polygon points="30.9,55 39.1,56.3 43.4,49.8 34.8,48.5 		" />
		<polygon points="26.5,62.6 27,68.3 32.3,66.3 36.8,59.6 29,58.3 		" />
		<polygon points="36.7,45.1 45.7,46.5 50,40 40.6,38.6 		" />
		<polygon points="50.3,15.3 52.3,18.6 52.3,18.6 48.3,25.5 58.7,27.1 60.8,24 60.8,24 64.6,24.4 66.9,20.8 52.5,11.7 		" />
	</g>
</svg>