<svg xmlns="http://www.w3.org/2000/svg"
	 viewBox="0 0 80 80"
	 width="100%"
	 height="100%">
	<path d="M66,22.9H14c-0.8,0-1.5,0.7-1.5,1.5v30.2c0,0.8,0.7,1.5,1.5,1.5l8.9,0.1v10h3.9l7.4-10L66,56.1c0.8,0,1.5-0.7,1.5-1.5V24.4
		C67.5,23.6,66.8,22.9,66,22.9z M37.6,28.3c0-0.3,0.2-0.5,0.5-0.5h3.7c0.3,0,0.5,0.2,0.5,0.5v4.5l-0.9,9.1c0,0.3-0.3,0.5-0.5,0.5h-2
		c-0.3,0-0.5-0.2-0.5-0.5l-0.9-9.1V28.3z M40,50.9c-1.7,0-2.8-1.2-2.8-2.9c0-1.7,1.1-2.9,2.8-2.9c1.7,0,2.8,1.2,2.8,2.9
		C42.8,49.7,41.7,50.9,40,50.9z" />
</svg>
