<svg xmlns="http://www.w3.org/2000/svg" viewBox="0 0 30 30" width="100%" height="100%">
	<path d="M15.14355,12.38659A2.811,2.811,0,0,0,18.17474,9.3554c0-1.8711-.82329-3.40541-3.03118-3.40541-2.24532,0-3.03118,1.5343-3.03118,3.40541A2.82938,2.82938,0,0,0,15.14355,12.38659Z"></path>
	<path d="M21.5053,19.98326c-.03742-4.82744-1.04782-6.6237-4.341-7.11019a3.18133,3.18133,0,0,1-2.02079.63617,3.10853,3.10853,0,0,1-2.02079-.63617c-3.44283.41164-4.49064,2.17048-4.52807,7.03534v2.91892a.4601.4601,0,0,0,.41164.48649S10.391,23.95,15.10613,23.95s6.02495-.63617,6.02495-.63617c.22453,0,.37422-.22453.37422-.48649V19.98326Z"></path>
</svg>