<svg xmlns="http://www.w3.org/2000/svg" xmlns:xlink="http://www.w3.org/1999/xlink" version="1.1" id="Layer_1" x="0px" y="0px" viewBox="0 0 512 512" style="enable-background:new 0 0 512 512;" xml:space="preserve">
<g>
	<g>
		<path d="M492.473,293.131v-47.972l-22.908-105.031c-2.198-9.984-11.213-17.231-21.436-17.231H291.581    c-7.934,0-15.272,4.3-19.151,11.224l-1.077,1.923c7.422,7.057,12.134,16.929,12.407,27.89l9.288-16.586H366.1v73.357h-82.094    c0,7.524,0,69.544,0,78.344c14.59,1.119,26.34,13.34,26.34,28.211v15.954h46.625c0-30.677,25.019-55.439,55.44-55.439    c30.428,0,55.44,24.769,55.44,55.439h18.763c14.02,0,25.385-11.366,25.385-25.385C512,305.825,503.667,295.776,492.473,293.131z     M345.368,262.624h-26.202c-4.618,0-8.36-3.742-8.36-8.36c0-4.618,3.742-8.36,8.36-8.36h26.202c4.618,0,8.36,3.743,8.36,8.36    C353.728,258.882,349.986,262.624,345.368,262.624z M392.135,220.705v-73.357h53.98l16.138,73.357H392.135z"></path>
	</g>
</g>
<g>
	<g>
		<path d="M162.992,245.536l-22.443,8.099c-3.554,4.075-8.04,7.197-13.024,9.129c-3.037,5.642-4.764,12.095-4.764,18.952v12.177    c-9.858,3.486-16.924,12.883-16.924,23.935c0,14.02,11.365,25.385,25.385,25.385c9.42,0,10.54,0,31.771,0    C162.992,343.214,162.992,256.796,162.992,245.536z"></path>
	</g>
</g>
<g>
	<g>
		<path d="M412.412,304.493c-21.384,0-38.721,17.335-38.721,38.72s17.335,38.721,38.721,38.721    c21.386,0,38.721-17.335,38.721-38.721C451.131,321.829,433.796,304.493,412.412,304.493z M412.412,358.897    c-8.662,0-15.684-7.022-15.684-15.684c0-8.662,7.022-15.684,15.684-15.684c8.662,0,15.684,7.022,15.684,15.684    C428.096,351.876,421.074,358.897,412.412,358.897z"></path>
	</g>
</g>
<g>
	<g>
		<path d="M267.408,407.535h-39.716l0.066,23.145c0.03,10.948,8.915,19.802,19.856,19.802c0.019,0,0.038,0,0.058,0    c10.967-0.03,19.833-8.946,19.802-19.914L267.408,407.535z"></path>
	</g>
</g>
<g>
	<g>
		<path d="M196.301,407.534c-6.487,0.001-12.467-2.198-17.247-5.884c0,5.054-0.002,23.179-0.002,28.972    c-0.001,10.967,8.889,19.859,19.856,19.859c0,0,0,0,0.001,0c10.967,0,19.857-8.89,19.857-19.856l0.001-23.09H196.301z"></path>
	</g>
</g>
<g>
	<g>
		<path d="M120.331,216.046l-50.128-14.991L42.57,161.92l28.827,22.22l16.462,4.923v-24.127c0-12.796-10.373-23.169-23.169-23.169    H23.372C10.577,141.769,0,152.141,0,164.937v265.629c-0.031,10.968,8.631,19.884,19.598,19.914c0.02,0,0.038,0,0.058,0    c10.94,0,19.826-8.854,19.856-19.802l0.415-146.815c0-0.019-0.002-0.037-0.002-0.056h8.566l0.011,146.815    c0,10.968,8.893,19.857,19.859,19.856c10.968,0,19.678-8.893,19.677-19.859c-0.012-182.936,0.001-171.623,0.001-172.467    L50.5,246.982c-6.411-1.917-14.395-3.163-17.555-12.62l-17.412-53.349l30.93,43.805c2.137,3.026,5.227,5.248,8.777,6.309    l55.606,16.629c8.75,2.619,17.976-2.352,20.597-11.113C134.063,227.887,129.087,218.664,120.331,216.046z"></path>
	</g>
</g>
<g>
	<g>
		<circle cx="44.21" cy="95.817" r="34.298"></circle>
	</g>
</g>
<g>
	<g>
		<path d="M223.059,61.519c-18.942,0-34.298,15.355-34.298,34.298c0,18.96,15.387,34.298,34.298,34.298    c18.91,0,34.298-15.338,34.298-34.298C257.357,76.875,242.001,61.519,223.059,61.519z"></path>
	</g>
</g>
<g>
	<g>
		<path d="M282.044,315.677h-14.536c0-14.087,0-10.134,0-24.518c0-4.663-3.779-8.442-8.442-8.442h-2.628    c1.795-11.177,6.514-40.559,8.27-51.497c0.44-2.735,0.185-5.538-0.739-8.149l-19.593-55.328l1.17,1.74l21.522,31.988v-36.534    c0-12.795-10.373-23.169-23.169-23.169h-41.317c-12.796,0-23.169,10.373-23.169,23.169v17.315l-8.394,7.013    c-14.46,5.289-14.538,5.317-38.62,14.124c10.326,6.077,16.566,17.349,16.279,29.287c19.179-7.014,12.374-4.525,30.735-11.24    c0,79.879-0.35,83.4-0.35,83.4c4.236-3.265,9.417-5.354,15.057-5.787v-7.891c0-10.605,6.598-19.691,15.9-23.389    c2.516-15.665,4.539-28.259,7.098-44.196c-2.905-33.182-2.023-23.174-3.94-44.782l18.184,51.346    c-6.164,38.384-4.913,30.591-8.443,52.577h-3.636c-4.664,0-8.442,3.78-8.442,8.442c0,14.396,0,10.425,0,24.518h-14.536    c-6.398,0-11.585,5.187-11.585,11.583v51.972c0,6.398,5.186,11.583,11.585,11.583h85.742c6.398,0,11.583-5.186,11.583-11.583    v-51.972C293.627,320.862,288.441,315.677,282.044,315.677z M250.622,315.675h-22.899v-15.181    c2.289,2.068,5.174,3.528,8.447,4.053c5.426,0.876,10.763-1.004,14.453-4.771V315.675z"></path>
	</g>
</g>
<g>
</g>
<g>
</g>
<g>
</g>
<g>
</g>
<g>
</g>
<g>
</g>
<g>
</g>
<g>
</g>
<g>
</g>
<g>
</g>
<g>
</g>
<g>
</g>
<g>
</g>
<g>
</g>
<g>
</g>
</svg>