<svg xmlns="http://www.w3.org/2000/svg" viewBox="0 0 80 80" id="icon-nextstep-image-gallery" width="100%" height="100%"><path d="M49.1 46.5l-8.3-11.2-8.2 11.6-5.7-5.1-5.7 8.3V54h27.9z"></path><ellipse cx="29.3" cy="32.9" rx="3.1" ry="3.1"></ellipse><path d="M56.2 18.5h-43c-1.6 0-2.9 1.3-2.9 2.9v47.1c0 1.6 1.3 2.9 2.9 2.9h43c1.6 0 3-1.3 3-2.9V21.4c0-1.6-1.4-2.9-3-2.9zm-2.9 5.9v35H16.1v-35h37.2z"></path><path d="M66.8 8.5h-43c-1.6 0-2.9 1.3-2.9 2.9s1.3 2.9 2.9 2.9h40.1v44.2c0 1.6 1.3 3 3 3 1.6 0 2.9-1.3 2.9-3v-47c0-1.7-1.4-3-3-3z"></path></svg>