<svg xmlns="http://www.w3.org/2000/svg"
	 viewBox="0 0 80 80"
	 width="100%"
	 height="100%">
	<g>
		<path d="M47,43.8L47,43.8L47,43.8l0.1,5.2c0,0.8-0.7,1.5-1.5,1.5h-1.5c0,0,0,0-0.1,0h-7.7c0,0,0,0-0.1,0h-1.4
		c-0.8,0-1.5-0.7-1.5-1.5v-3v-2.2v-0.1H21.4L14.9,34v26.1c0,0.8,0.7,1.5,1.5,1.5h47.6c0.8,0,1.5-0.7,1.5-1.5V34l-6.6,9.8H47z" />
		<path d="M64,26.5H51.2l0.1-6.5c0-0.8-0.7-1.5-1.5-1.5h-2.4H32.9h-2.3c-0.8,0-1.5,0.7-1.5,1.5v6.5H16.3c-0.8,0-1.4,0.6-1.4,1.4V28
		l8.4,12.6H57L65.4,28v-0.1C65.4,27.1,64.8,26.5,64,26.5z M46.2,26.5h-12v-3h12V26.5z" />
		<path d="M42.2,47.4c0.8,0,1.4-0.6,1.4-1.4v-2.2h-6.7V46c0,0.8,0.6,1.4,1.4,1.4H42.2z" />
	</g>
</svg>
