<svg xmlns="http://www.w3.org/2000/svg" viewBox="0 0 30 30" width="100%" height="100%">
	<path d="M23.7,19.3v-1.1c0,0-0.2-0.5-0.8-1.2c-0.4-0.4-0.6-0.6-0.6-0.6l0.2-0.1l0-0.1c0,0-2.4-0.5-6-0.4c-3.6,0.1-5.5,1.9-5.5,1.9
		s-2.8,0.2-4,0.9c-0.5,0.3-0.7,1.2-0.7,1.2L6,20.1v1.2c0,0,0.5,0.4,1.8,0.4c0,0,0.1,0,0.1,0c0.2,0.5,0.7,0.9,1.3,0.9
		c0.6,0,1.1-0.4,1.3-0.9c2.7,0,6.7,0,9.3,0c0.2,0.5,0.7,0.9,1.3,0.9c0.6,0,1.1-0.4,1.3-0.9c0.2,0,0.2,0,0.2,0s1.3-0.1,1.3-0.9
		c0-0.7,0-1,0-1L23.7,19.3z"></path>
	<path d="M6.1,14.3c0.2,0.7,0.2,0.8,0.4,1.6l1.7,0.3C8.6,16.5,8.7,16.7,9,17c0.7-0.1,1.2-0.2,1.6-0.2c0.2-0.1,0.5-0.4,0.9-0.6
		c-1.2-0.4-2-1.5-2-2.8c0-1.6,1.3-2.9,2.9-2.9c1.6,0,2.9,1.3,2.9,2.9c0,0.6-0.2,1.1-0.5,1.6c0.5-0.1,1.1-0.2,1.7-0.2
		c0.3,0,0.5,0,0.8,0c0.4,0,0.7,0,1.1,0c0-0.3,0.1-0.5,0.2-0.9l-1.4-1c-0.1-0.4-0.2-0.7-0.3-1.1l0.7-1.6c-0.5-0.6-0.6-0.7-1.1-1.2
		l-1.7,0.5c-0.4-0.2-0.7-0.3-1-0.5l-0.8-1.6c-0.8,0-0.9,0-1.6,0L10.6,9c-0.4,0.2-0.6,0.3-1,0.5L7.8,9.2c-0.5,0.6-0.5,0.7-1,1.3
		L7.7,12c-0.1,0.4-0.1,0.7-0.2,1.1L6.1,14.3z"></path>
</svg>