<svg version="1.0" xmlns="http://www.w3.org/2000/svg"
 width="640.000000pt" height="630.000000pt" viewBox="0 0 640.000000 630.000000"
 preserveAspectRatio="xMidYMid meet">
<g transform="translate(0.000000,630.000000) scale(0.100000,-0.100000)"
fill="#0099DA" stroke="none">
<path d="M2895 6289 c-1299 -81 -2168 -712 -2475 -1798 -65 -233 -104 -480
-120 -772 -9 -157 -14 -196 -27 -204 -104 -66 -188 -164 -236 -275 l-32 -75
-3 -433 c-3 -483 -3 -484 65 -614 44 -84 154 -191 238 -232 111 -54 141 -58
415 -63 l256 -5 33 -86 c213 -539 617 -1036 1103 -1359 225 -149 528 -280 775
-335 84 -19 128 -22 313 -22 185 0 229 3 313 22 247 55 550 186 775 335 486
323 890 820 1103 1359 l33 86 256 5 c274 5 304 9 415 63 84 41 194 148 238
232 68 130 68 131 65 614 l-3 433 -32 75 c-48 111 -132 209 -236 275 -13 8
-18 47 -27 204 -54 974 -410 1671 -1077 2112 -529 349 -1279 511 -2128 458z
m555 -349 c1018 -62 1699 -449 2045 -1165 155 -321 233 -661 258 -1122 l3 -63
-103 0 c-98 0 -103 1 -107 23 -3 12 -17 83 -32 157 -139 711 -484 1260 -985
1564 -404 245 -884 348 -1501 324 -889 -35 -1547 -437 -1903 -1163 -108 -222
-188 -463 -239 -725 -15 -74 -29 -145 -32 -157 -4 -22 -9 -23 -107 -23 l-103
0 3 63 c25 461 103 801 258 1122 370 765 1132 1160 2265 1173 63 1 189 -3 280
-8z m-1079 -1567 c227 -322 467 -513 825 -656 61 -25 218 -79 350 -120 267
-84 373 -127 466 -186 34 -22 64 -38 66 -36 14 13 -70 200 -127 285 -17 25
-26 47 -21 48 19 7 282 -39 419 -73 274 -68 507 -164 680 -279 157 -105 148
-90 156 -263 28 -554 -47 -966 -250 -1378 -242 -491 -641 -895 -1118 -1130
-236 -117 -423 -168 -617 -168 -79 0 -152 6 -200 17 -358 79 -747 305 -1054
612 -98 98 -251 277 -276 324 -11 20 -10 20 42 -1 223 -90 510 -153 807 -178
86 -7 105 -11 114 -27 20 -38 114 -120 172 -151 100 -53 203 -76 335 -77 183
0 338 54 445 155 78 74 110 143 110 239 0 96 -32 165 -110 239 -107 101 -262
155 -445 154 -198 -2 -341 -54 -455 -168 l-60 -60 -95 8 c-475 38 -849 180
-1103 417 -84 79 -98 105 -141 278 -53 207 -68 331 -73 607 l-5 261 108 27
c532 131 941 659 980 1265 4 56 8 102 10 102 2 0 31 -39 65 -87z"/>
<path d="M2260 3154 c-142 -51 -220 -165 -220 -322 0 -100 34 -177 109 -244
171 -154 450 -86 531 130 18 46 21 72 18 137 -7 132 -72 230 -187 284 -71 32
-183 39 -251 15z"/>
<path d="M3923 3152 c-138 -49 -213 -150 -221 -297 -3 -65 0 -91 18 -137 81
-216 360 -284 531 -130 75 67 109 144 109 244 0 140 -67 251 -185 307 -69 33
-181 39 -252 13z"/>
</g>
</svg>
